<svg width="138" height="30" viewBox="0 0 138 30" fill="none" xmlns="http://www.w3.org/2000/svg">
<path d="M46.7686 19.521L46.6584 23.5378H34.7159V23.1097L36.6739 22.9167V7.41239L34.7159 7.22267V6.79456H40.846V7.22267L38.7681 7.41564V22.9994H43.9256C44.1918 23.0499 44.4672 22.993 44.6916 22.8411C44.916 22.6892 45.0712 22.4546 45.1234 22.1886L46.1089 19.5162L46.7686 19.521Z" fill="#285DA1"/>
<path d="M65.5071 10.8016C64.8907 9.53969 63.9504 8.46413 62.7824 7.68485C61.959 7.13097 61.0228 6.76706 60.0416 6.61945V6.93404C61.2043 7.18701 62.1379 7.87566 62.8424 8.99999C63.7485 10.4465 64.2039 12.5059 64.2039 15.1621C64.2039 17.8184 63.7485 19.8762 62.8424 21.3243C62.139 22.4421 61.2053 23.1259 60.0416 23.3757V23.7146C61.0223 23.566 61.9582 23.2028 62.7824 22.6508C63.9504 21.8702 64.8906 20.7936 65.5071 19.5308C66.158 18.1685 66.4959 16.6777 66.4959 15.1678C66.4959 13.6579 66.158 12.1671 65.5071 10.8049V10.8016ZM52.4365 10.8016C51.7825 12.163 51.443 13.6541 51.443 15.1646C51.443 16.675 51.7825 18.1662 52.4365 19.5276C53.0518 20.7911 53.9922 21.868 55.1612 22.6475C56.0275 23.2286 57.0168 23.6005 58.0512 23.734V23.4097C56.8161 23.1881 55.8328 22.4935 55.1012 21.3259C54.1914 19.8838 53.7375 17.8297 53.7397 15.1638C53.7397 12.5043 54.1919 10.4449 55.1012 9.00161C55.8338 7.82864 56.8172 7.12918 58.0512 6.90323V6.59674C57.0162 6.72994 56.0266 7.10309 55.1612 7.68647C53.9926 8.46436 53.0521 9.53959 52.4365 10.8016Z" fill="#285DA1"/>
<path d="M58.176 23.8752L58.035 23.8573C56.9822 23.7198 55.9751 23.342 55.0916 22.753C53.9065 21.9583 52.952 20.8647 52.3248 19.5827C51.6637 18.2038 51.3205 16.694 51.3205 15.1646C51.3205 13.6353 51.6637 12.1254 52.3248 10.7465C52.951 9.46514 53.9057 8.37287 55.0916 7.5811C55.9738 6.98858 56.9813 6.6089 58.035 6.47191L58.176 6.45407V7.00543L58.0739 7.02326C56.8826 7.24218 55.9182 7.92813 55.2066 9.06488C54.3168 10.4822 53.8646 12.5352 53.8646 15.1654C53.8646 17.7957 54.3152 19.8438 55.2066 21.2546C55.9166 22.3897 56.881 23.0676 58.0723 23.2833L58.176 23.3011V23.8752ZM57.9264 6.73948C56.9614 6.88445 56.0404 7.24106 55.2293 7.7838C54.0782 8.55499 53.1524 9.61827 52.5468 10.8649C51.9023 12.2088 51.5677 13.6805 51.5677 15.1711C51.5677 16.6617 51.9023 18.1333 52.5468 19.4773C53.1563 20.7165 54.0816 21.7731 55.2293 22.5406C56.0411 23.0827 56.9617 23.4403 57.9264 23.5881V23.5135C56.7092 23.2654 55.7237 22.5519 54.9959 21.3908C54.0801 19.9411 53.615 17.8476 53.615 15.1703C53.615 12.493 54.0801 10.3962 54.9959 8.9384C55.7253 7.77245 56.7108 7.05407 57.9264 6.80272V6.73948ZM59.9168 23.8557V23.2719L60.0157 23.2508C61.1406 23.0092 62.0564 22.3379 62.7371 21.2546C63.6286 19.8389 64.0792 17.7892 64.0792 15.1654C64.0792 12.5416 63.627 10.4887 62.7371 9.06488C62.0564 7.97677 61.1406 7.30056 60.0157 7.0557L59.9168 7.03461V6.47515L60.0611 6.49623C61.0601 6.64739 62.0132 7.01787 62.8522 7.5811C64.0366 8.37445 64.991 9.4663 65.619 10.7465C66.2784 12.1259 66.6206 13.6356 66.6206 15.1646C66.6206 16.6937 66.2784 18.2033 65.619 19.5827C64.9907 20.8636 64.0365 21.9564 62.8522 22.7514C62.0127 23.3138 61.0598 23.6847 60.0611 23.8379L59.9168 23.8557ZM60.1664 23.4714V23.5654C61.0776 23.406 61.9454 23.058 62.7144 22.5438C63.8625 21.7726 64.7876 20.7128 65.3969 19.4708C66.0393 18.1262 66.3727 16.6549 66.3727 15.1646C66.3727 13.6744 66.0393 12.203 65.3969 10.8584C64.7891 9.61498 63.8637 8.55431 62.7144 7.7838C61.946 7.26806 61.078 6.91946 60.1664 6.76056V6.83029C61.3156 7.10759 62.2509 7.81299 62.9478 8.92867C63.8636 10.3881 64.3272 12.4881 64.3272 15.1606C64.3272 17.833 63.8636 19.9249 62.9478 21.3811C62.2492 22.4968 61.314 23.1989 60.1664 23.4714Z" fill="#285DA1"/>
<path d="M79.4481 6.91785V7.11082L80.9069 7.2292C81.0998 7.22856 81.2896 7.27771 81.4579 7.3719C81.5126 7.41382 81.556 7.46865 81.5843 7.53148C81.6126 7.5943 81.6249 7.66316 81.62 7.7319C81.6204 7.88829 81.5878 8.04301 81.5244 8.18596L78.4334 14.6335L78.6523 14.9822L81.9085 8.18596C82.0166 7.9107 82.1824 7.66185 82.3948 7.45623C82.5472 7.33623 82.8135 7.26055 83.1939 7.2292L84.5311 7.11082V6.91785H79.4481Z" fill="#285DA1"/>
<path d="M79.3233 6.79456V7.22591L80.8987 7.35239C81.0682 7.35173 81.2353 7.39295 81.385 7.47239C81.425 7.50209 81.4567 7.54152 81.4771 7.58694C81.4975 7.63235 81.506 7.68224 81.5017 7.73185C81.5013 7.87007 81.4715 8.00662 81.4142 8.13239L78.2876 14.64L78.662 15.2416L82.0155 8.23942C82.1189 7.9825 82.2739 7.74957 82.471 7.5551C82.5634 7.48212 82.766 7.39293 83.2036 7.35239L84.6543 7.22267V6.79456H79.3233ZM78.5761 14.627L81.6395 8.23618C81.7116 8.07787 81.7486 7.90583 81.7481 7.73185C81.7518 7.64285 81.7338 7.55428 81.6956 7.47377C81.6575 7.39326 81.6004 7.32322 81.5293 7.26969C81.3426 7.16189 81.1305 7.10591 80.915 7.10753L80.1418 7.04429H83.8989L83.189 7.10753C82.7806 7.13672 82.4985 7.21942 82.3219 7.35564C82.0935 7.57454 81.914 7.83924 81.7951 8.13239L78.6393 14.7227L78.5761 14.627Z" fill="#285DA1"/>
<path d="M77.8791 16.8908V22.9168L79.9538 23.1097V23.5346H73.7119V23.1097L75.7865 22.9168V17.0108L70.6484 7.4157L68.6451 7.22272V6.79462H74.84V7.22272L72.8382 7.40597L77.5452 16.2033L77.8791 16.8908Z" fill="#285DA1"/>
<path d="M89.3093 7.29731L87.3643 7.1092V6.91785H93.2431V7.1092L91.1555 7.29731V23.1227H96.4411C96.7314 23.1446 97.0218 23.0821 97.2774 22.9427C97.5026 22.7587 97.6712 22.5147 97.7637 22.2389L99.3845 18.1508L99.6714 18.1978L99.075 23.4097H87.3643V23.2216L89.3093 23.027V7.29731Z" fill="#285DA1"/>
<path d="M99.1755 23.5362H87.2331V23.1081L89.1927 22.9167V7.41402L87.2331 7.22267V6.79456H93.3615V7.22267L91.2819 7.41402V23.001H96.4411C96.7068 23.0197 96.9724 22.9636 97.2078 22.8389C97.4088 22.6665 97.5585 22.4421 97.6405 22.1902L99.3019 18.0113L99.8044 18.0956L99.1755 23.5362ZM87.956 23.2881H98.9534L99.5207 18.3048L99.4494 18.2935L97.861 22.2875C97.7631 22.5865 97.5814 22.8511 97.3375 23.0497C97.1397 23.1843 96.8512 23.2508 96.4314 23.2508H91.0323V7.18699L92.6013 7.04266H87.9543L89.4407 7.18861V23.1437L87.956 23.2881Z" fill="#285DA1"/>
<path d="M115.716 18.3681L114.141 22.2405C114.079 22.5295 113.907 22.7832 113.662 22.9482C113.417 23.1133 113.117 23.177 112.826 23.1259H107.478V14.9189H111.014C111.397 14.9189 111.663 14.9822 111.825 15.1119C111.987 15.2416 112.094 15.4865 112.16 15.853L112.564 17.7876H112.849V11.6757H112.564L112.163 13.6103C112.097 13.98 111.987 14.2249 111.828 14.3513C111.669 14.4778 111.397 14.5443 111.017 14.5443H107.474V8.89621H105.635V23.027L103.677 23.22V23.4081H115.386L115.982 18.3811L115.716 18.3681Z" fill="#285DA1"/>
<path d="M103.552 7.22267V6.79456H115.525L115.877 11.5232L115.421 11.5686L114.052 8.13564C113.916 7.79348 113.776 7.57131 113.63 7.47564C113.397 7.36054 113.136 7.31015 112.877 7.32969H107.599L103.552 7.22267Z" fill="#285DA1"/>
<path d="M115.637 18.2351L114.024 22.1935C113.942 22.4448 113.793 22.669 113.593 22.8422C113.358 22.9669 113.092 23.0231 112.826 23.0043H107.599V15.0584H111.003C111.355 15.0584 111.601 15.1119 111.737 15.2205C111.873 15.3292 111.969 15.5449 112.029 15.8919L112.454 17.927H112.974V11.5524H112.46L112.035 13.5908C111.975 13.9232 111.873 14.1486 111.744 14.2557C111.614 14.3627 111.361 14.4178 111.009 14.4178H107.606V8.90432H107.358V14.6757H111.017C111.432 14.6757 111.724 14.6059 111.907 14.4584C112.09 14.3108 112.219 14.0449 112.285 13.6476L112.671 11.8119H112.734V17.6757H112.671L112.288 15.8432C112.219 15.4427 112.092 15.1768 111.907 15.0324C111.723 14.8881 111.432 14.8119 111.017 14.8119H107.351V23.2589H112.826C113.238 23.2589 113.533 23.1957 113.732 23.0595C113.976 22.8609 114.157 22.5971 114.256 22.2989L115.801 18.5108H115.843L115.272 23.2962H104.275L105.758 23.1503V8.89621H105.518V22.9168L103.56 23.1097V23.5378H115.502L116.126 18.2789L115.637 18.2351Z" fill="#285DA1"/>
<path d="M136.935 6.91787V7.10922L135.215 7.29733C134.833 7.34598 134.578 7.44165 134.45 7.58436C134.323 7.72706 134.259 7.98976 134.259 8.37247V23.7925H134.02L123.292 8.56382H123.196V21.9519C123.196 22.333 123.245 22.6006 123.341 22.7514C123.436 22.9022 123.626 22.9946 123.913 23.0271L125.616 23.2217V23.413H120.378V23.2217L122.098 23.0271C122.384 22.9946 122.584 22.9038 122.671 22.7514C122.759 22.599 122.814 22.333 122.814 21.9519V8.03841L122.718 7.89571C122.559 7.63851 122.343 7.42152 122.086 7.26165C121.812 7.14113 121.513 7.08563 121.214 7.09949H120.807V6.90814H124.373L133.782 20.1081H133.883V8.37571C133.903 8.09765 133.853 7.81901 133.738 7.5649C133.642 7.40598 133.451 7.31841 133.165 7.30219L131.229 7.11084V6.91949L136.935 6.91787Z" fill="#285DA1"/>
<path d="M134.384 23.9189H133.956L123.321 8.82483V21.96C123.321 22.4027 123.389 22.6086 123.446 22.6929C123.519 22.8113 123.681 22.8843 123.932 22.9119L125.74 23.1146V23.541H120.253V23.1146L122.085 22.9119C122.329 22.8843 122.492 22.8113 122.571 22.6929C122.628 22.6038 122.696 22.4027 122.696 21.96V8.07888L122.621 7.96699C122.472 7.72775 122.271 7.52538 122.033 7.3751C121.777 7.26704 121.5 7.21878 121.222 7.23401H120.691V6.79456H124.44L133.761 19.8583V8.37564C133.761 7.93131 133.693 7.72699 133.635 7.62807C133.562 7.50645 133.403 7.43834 133.162 7.42537L131.108 7.22267V6.79456H137.06V7.22104L135.228 7.42537C134.795 7.47888 134.617 7.58753 134.544 7.67023C134.471 7.75293 134.382 7.94104 134.382 8.37564L134.384 23.9189ZM134.085 23.6756H134.134V8.37564C134.134 7.95888 134.207 7.67348 134.358 7.50483C134.509 7.33618 134.782 7.22915 135.201 7.1805L136.41 7.04591H131.815L133.173 7.1805C133.497 7.19834 133.722 7.30699 133.841 7.50483C133.959 7.70266 134.003 7.97185 134.003 8.3805V20.2378H133.721L124.304 7.04266H121.825C121.938 7.06576 122.047 7.10338 122.15 7.15456C122.425 7.32252 122.657 7.55307 122.827 7.82753L122.945 8.00428V21.9502C122.945 22.3605 122.892 22.6427 122.783 22.8162C122.675 22.9897 122.443 23.1129 122.117 23.1405L120.911 23.2751H125.096L123.907 23.1405C123.582 23.1048 123.359 22.9929 123.242 22.8162C123.125 22.6394 123.08 22.3605 123.08 21.9502V8.44375H123.365L134.085 23.6756Z" fill="#285DA1"/>
<path d="M23.4683 10.4157V4.95405L14.0333 0.107028L13.8259 0L13.6184 0.107028L4.25474 4.91676L4.18342 4.95405V10.2049L0 14.6951L4.19152 19.3703V25.0459L13.6152 29.8897L13.7675 29.9692L13.8275 30L14.035 29.8849L23.4651 24.7378V19.5811L27.6566 14.9984L23.4683 10.4157ZM4.18018 16.8097L2.36158 14.7827L4.18018 12.8368V16.8097ZM4.18018 12.4103L2.04551 14.6951L1.96771 14.7795L4.18018 17.2476V18.4735L0.810426 14.7016L4.19152 11.0805L4.18018 12.4103ZM4.81069 5.27513L12.4562 1.34594L4.81393 9.53189L4.81069 5.27513ZM4.81069 24.7232V20.0724L12.5454 28.7027L4.81069 24.7232ZM22.8346 24.4281L15.236 28.5811L22.8378 20.2703L22.8346 24.4281ZM22.8346 19.3816L13.8259 29.2297L4.81069 19.1757V17.9481L13.821 28.0022L22.8346 18.1524V19.3816ZM22.8346 17.7162L13.8275 27.5676L4.81393 17.5135V12.1622L13.8242 2.51675L22.8378 12.3665L22.8346 17.7162ZM22.8346 11.9335L13.9393 2.21514L13.821 2.08703L4.80745 11.7357V10.4076L13.8178 0.762164L22.8313 10.6135L22.8346 11.9335ZM22.8346 9.72811L15.1452 1.32487L22.8346 5.27513V9.72811ZM23.4651 13.0541L25.2853 15.0405L23.4683 17.027L23.4651 13.0541ZM23.4651 17.46L25.6095 15.1249L25.6873 15.0405L23.4748 12.6227V11.2995L26.8575 14.9984L23.4748 18.6957L23.4651 17.46Z" fill="#285DA1"/>
<path d="M17.0502 17.027L16.4699 18.5562C16.4153 18.7202 16.3153 18.8653 16.1814 18.9746C16.0267 19.0566 15.8519 19.0932 15.6773 19.08H12.4923V9.69081L13.7452 9.57729V9.46378H10.2004V9.57729L11.382 9.69081V19.0249L10.2118 19.234V19.4351H17.2495L17.4521 17.027H17.0502ZM11.8132 19.0394H11.5636V9.77999H11.8132V19.0394Z" fill="#285DA1"/>
</svg>
